<?xml version="1.0" encoding="utf-8"?><svg width="132" height="41" viewBox="0 0 132 41" fill="none" xmlns="http://www.w3.org/2000/svg">
<path d="M86.2357 24.2457C84.6298 24.2457 83.1777 23.8456 81.8793 23.0455C80.5979 22.2283 79.59 21.0961 78.8553 19.649C78.1207 18.202 77.7534 16.5591 77.7534 14.7204C77.7534 12.9158 78.1122 11.2899 78.8297 9.84285C79.5643 8.39575 80.5723 7.26361 81.8536 6.44643C83.1349 5.61222 84.5871 5.19512 86.2101 5.19512C87.9185 5.19512 89.3365 5.58668 90.4641 6.36982C91.5916 7.13593 92.4544 8.17443 93.0523 9.48533C93.0694 9.51938 93.078 9.57045 93.078 9.63855C93.078 9.75772 93.0182 9.84285 92.8986 9.89392L90.8741 10.7622C90.8399 10.7792 90.7887 10.7877 90.7203 10.7877C90.6007 10.7877 90.5153 10.7281 90.4641 10.609C89.5586 8.88947 88.1406 8.02972 86.2101 8.02972C85.2192 8.02972 84.3223 8.30212 83.5193 8.8469C82.7164 9.37467 82.0843 10.1408 81.623 11.1452C81.1617 12.1497 80.9311 13.3244 80.9311 14.6693C80.9311 16.0313 81.1617 17.223 81.623 18.2445C82.1013 19.266 82.742 20.0491 83.545 20.5939C84.365 21.1387 85.2619 21.4111 86.2357 21.4111C88.2687 21.4111 89.7465 20.4833 90.6691 18.6276C90.7032 18.5424 90.7545 18.4829 90.8228 18.4488C90.9083 18.4148 90.9937 18.4148 91.0791 18.4488L93.1292 19.2405C93.3342 19.3256 93.394 19.4447 93.3086 19.598C92.6936 21.0621 91.7881 22.2027 90.5922 23.0199C89.3963 23.8371 87.9441 24.2457 86.2357 24.2457Z" fill="#EA1D2C"/>
<path d="M100.586 24.2457C99.5443 24.2457 98.5876 23.9733 97.7163 23.4285C96.845 22.8667 96.1446 22.0751 95.615 21.0536C95.1024 20.0151 94.8462 18.8063 94.8462 17.4273C94.8462 16.0994 95.0939 14.9162 95.5893 13.8777C96.1019 12.8392 96.8023 12.0305 97.6907 11.4517C98.5791 10.8728 99.57 10.5834 100.663 10.5834C101.466 10.5834 102.167 10.7452 102.765 11.0686C103.363 11.3751 103.841 11.8007 104.2 12.3455V11.2218C104.2 11.1367 104.225 11.0686 104.277 11.0175C104.345 10.9494 104.422 10.9154 104.507 10.9154H106.634C106.72 10.9154 106.788 10.9494 106.839 11.0175C106.908 11.0686 106.942 11.1367 106.942 11.2218V17.9891C106.942 19.0276 107.027 19.8874 107.198 20.5684C107.369 21.2323 107.685 21.9729 108.146 22.7901C108.18 22.8582 108.197 22.9178 108.197 22.9689C108.197 23.054 108.138 23.1306 108.018 23.1987L106.096 24.1436C106.028 24.1776 105.977 24.1946 105.942 24.1946C105.857 24.1946 105.772 24.1436 105.686 24.0414C105.242 23.3945 104.909 22.6879 104.687 21.9218C104.26 22.6198 103.687 23.1817 102.97 23.6073C102.269 24.0329 101.475 24.2457 100.586 24.2457ZM101.073 21.6154C101.723 21.6154 102.303 21.4196 102.816 21.028C103.346 20.6365 103.764 20.1172 104.072 19.4703V16.4314C104.072 15.461 103.798 14.6864 103.252 14.1075C102.705 13.5287 101.987 13.2393 101.099 13.2393C100.108 13.2393 99.3051 13.6223 98.6901 14.3884C98.0922 15.1375 97.7932 16.1505 97.7932 17.4273C97.7932 18.2786 97.9299 19.0191 98.2032 19.649C98.4936 20.279 98.8866 20.7642 99.382 21.1047C99.8775 21.4451 100.441 21.6154 101.073 21.6154Z" fill="#EA1D2C"/>
<path d="M113.297 23.6328C113.297 23.7179 113.263 23.7945 113.195 23.8626C113.143 23.9137 113.075 23.9393 112.99 23.9393H110.734C110.649 23.9393 110.572 23.9137 110.504 23.8626C110.453 23.7945 110.427 23.7179 110.427 23.6328V11.2218C110.427 11.1367 110.453 11.0686 110.504 11.0175C110.572 10.9494 110.649 10.9154 110.734 10.9154H112.887C112.973 10.9154 113.041 10.9494 113.092 11.0175C113.16 11.0686 113.195 11.1367 113.195 11.2218V13.1116C113.81 12.4646 114.442 11.9369 115.091 11.5283C115.757 11.1197 116.475 10.8133 117.244 10.609L117.346 10.5834C117.466 10.5834 117.551 10.6685 117.602 10.8388L118.089 13.1627L118.115 13.2648C118.115 13.401 118.029 13.4861 117.859 13.5202C116.97 13.6564 116.159 13.8777 115.424 14.1841C114.689 14.4906 113.98 14.9162 113.297 15.461V23.6328Z" fill="#EA1D2C"/>
<path d="M124.752 24.2457C123.676 24.2457 122.685 23.9733 121.779 23.4285C120.874 22.8667 120.156 22.0751 119.627 21.0536C119.097 20.0151 118.832 18.8063 118.832 17.4273C118.832 16.1335 119.089 14.9673 119.601 13.9288C120.114 12.8903 120.831 12.0731 121.754 11.4772C122.676 10.8813 123.718 10.5834 124.88 10.5834C125.683 10.5834 126.375 10.7281 126.956 11.0175C127.537 11.307 128.015 11.69 128.391 12.1667V5.3228C128.391 5.23768 128.417 5.16958 128.468 5.11851C128.536 5.05041 128.613 5.01636 128.699 5.01636H130.954C131.039 5.01636 131.107 5.05041 131.159 5.11851C131.227 5.16958 131.261 5.23768 131.261 5.3228V23.6328C131.261 23.7179 131.227 23.7945 131.159 23.8626C131.107 23.9137 131.039 23.9393 130.954 23.9393H128.878C128.792 23.9393 128.716 23.9137 128.647 23.8626C128.596 23.7945 128.57 23.7179 128.57 23.6328V22.4581C128.109 23.0199 127.554 23.4626 126.905 23.786C126.255 24.0925 125.538 24.2457 124.752 24.2457ZM125.213 21.6154C125.897 21.6154 126.512 21.4451 127.058 21.1047C127.622 20.7642 128.066 20.3045 128.391 19.7257V16.4314C128.391 15.461 128.101 14.6864 127.52 14.1075C126.939 13.5287 126.187 13.2393 125.265 13.2393C124.222 13.2393 123.377 13.6223 122.728 14.3884C122.095 15.1375 121.779 16.1505 121.779 17.4273C121.779 18.6701 122.095 19.6831 122.728 20.4662C123.36 21.2323 124.188 21.6154 125.213 21.6154Z" fill="#EA1D2C"/>
<path fill-rule="evenodd" clip-rule="evenodd" d="M9.5747 4.66381H3.76594L4.69664 0H10.5113L9.5747 4.66381ZM5.81008 23.3973H0L3.25218 7.20713H9.06226L5.81008 23.3973Z" fill="#EA1D2C"/>
<path fill-rule="evenodd" clip-rule="evenodd" d="M8.10889 27.9546H13.9196L17.4448 10.4335H21.6839L22.3515 7.20648H18.0757L18.222 6.45926C18.4951 5.07828 18.9394 3.47214 21.1306 3.47214C22.4285 3.47214 23.672 3.615 24.8798 4.12823L25.5403 0.718414C24.2158 0.241627 22.768 0 21.354 0C16.6878 0 13.4694 2.81016 12.2917 7.20648H10.274L9.64316 10.4335H11.6312L8.10889 27.9546Z" fill="#EA1D2C"/>
<path fill-rule="evenodd" clip-rule="evenodd" d="M26.5137 23.7581C33.3747 23.7581 38.1339 17.4229 38.1339 12.2552C38.1339 8.49148 34.6151 6.84595 31.2699 6.84595C23.7419 6.84595 19.645 13.6585 19.645 18.3494C19.645 22.1125 23.2011 23.7581 26.5137 23.7581Z" fill="#EA1D2C"/>
<path fill-rule="evenodd" clip-rule="evenodd" d="M44.8414 23.7581C51.7023 23.7581 56.4615 17.4229 56.4615 12.2552C56.4615 8.49148 52.9363 6.84595 49.594 6.84595C42.0696 6.84595 37.9697 13.6585 37.9697 18.3494C37.9697 22.1125 41.5294 23.7581 44.8414 23.7581Z" fill="#EA1D2C"/>
<path fill-rule="evenodd" clip-rule="evenodd" d="M65.9079 23.3968H71.6848L76.3279 0.361084H70.5137L69.1299 7.20659C68.3758 7.05433 67.5921 6.93498 66.7823 6.93498C61.0889 6.93498 55.915 14.2538 55.915 19.4843C55.915 21.6354 57.2988 23.7577 59.6482 23.7577C62.9857 23.7577 65.2978 22.1057 66.2616 20.5566H66.6218L65.9079 23.3968Z" fill="#EA1D2C"/>
<path fill-rule="evenodd" clip-rule="evenodd" d="M48.0102 35.6003C43.761 39.2582 38.0807 41.1354 31.9069 40.748C24.1224 40.2641 18.7252 34.17 17.6411 27.99H18.0084C19.7601 31.9389 24.0217 35.5803 29.3721 36.1788C34.5951 36.7626 40.9958 34.3757 44.5086 30.9694L40.5693 27.957L52.2694 27.99L49.7512 40.5128L48.0102 35.6003Z" fill="#EA1D2C"/>
</svg>
