<?xml version="1.0" encoding="utf-8"?><svg width="24" height="24" viewBox="0 0 24 24" fill="none" xmlns="http://www.w3.org/2000/svg">
<path fill-rule="evenodd" clip-rule="evenodd" d="M7.99818 3.74634C5.65024 3.74634 3.74609 5.65048 3.74609 7.99842V16.0018C3.74609 18.3497 5.65024 20.2538 7.99818 20.2538H16.0015C18.3494 20.2538 20.2536 18.3497 20.2536 16.0018V7.99842C20.2536 5.65048 18.3494 3.74634 16.0015 3.74634H7.99818ZM2.24609 7.99842C2.24609 4.82206 4.82181 2.24634 7.99818 2.24634H16.0015C19.1779 2.24634 21.7536 4.82206 21.7536 7.99842V16.0018C21.7536 19.1781 19.1779 21.7538 16.0015 21.7538H7.99818C4.82181 21.7538 2.24609 19.1781 2.24609 16.0018V7.99842Z" fill="white"/>
<path fill-rule="evenodd" clip-rule="evenodd" d="M14.7981 10.4694C15.091 10.7623 15.091 11.2372 14.7981 11.5301L11.9639 14.3643C11.8233 14.5049 11.6325 14.5839 11.4336 14.5839C11.2347 14.5839 11.0439 14.5049 10.9033 14.3643L9.20258 12.6636C8.90969 12.3707 8.90969 11.8958 9.20258 11.6029C9.49547 11.31 9.97035 11.31 10.2632 11.6029L11.4336 12.7733L13.7375 10.4694C14.0304 10.1765 14.5052 10.1765 14.7981 10.4694Z" fill="white"/>
</svg>
