<?xml version="1.0" encoding="utf-8"?><svg width="2960" height="691" viewBox="0 0 2960 691" fill="none" xmlns="http://www.w3.org/2000/svg">
<g clip-path="url(#clip0_2682_8204)">
<rect width="3175" height="841" transform="translate(0.00390625 -146.997)" fill="#EB0033"/>
<path d="M2404.02 -211.256L2287.28 -278.655C2279.81 -282.969 2270.28 -280.416 2265.99 -272.991L2163.42 -95.3421C2159.11 -87.8735 2161.69 -78.3819 2169.17 -74.0682L2285.9 -6.66922C2293.38 -2.35548 2302.91 -4.9085 2307.2 -12.3339L2409.76 -189.982C2414.08 -197.451 2411.49 -206.943 2404.02 -211.256Z" fill="#FF0C37"/>
<path d="M2789.98 14.1101L2673.24 -53.2889C2665.77 -57.6026 2656.23 -55.0496 2651.94 -47.6242L2549.38 130.024C2545.06 137.493 2547.65 146.985 2555.12 151.298L2671.86 218.697C2679.33 223.011 2688.86 220.458 2693.15 213.033L2795.72 35.384C2800.03 27.9154 2797.45 18.4238 2789.98 14.1101Z" fill="#FF0C37"/>
<path d="M2441.03 -51.7417L2531.03 0.22258C2534.79 2.39191 2536.09 7.22744 2533.87 11.0697L2499.45 70.6888C2497.25 74.4878 2492.39 75.8257 2488.64 73.6564L2398.63 21.6921C2394.87 19.5228 2393.58 14.6873 2395.8 10.8451L2430.22 -48.774C2432.41 -52.5731 2437.27 -53.911 2441.03 -51.7417Z" fill="#FF0C37"/>
<path d="M1413.54 -107.64L1503.55 -55.6754C1507.31 -53.506 1508.6 -48.6705 1506.39 -44.8283L1471.96 14.7908C1469.77 18.5899 1464.91 19.9278 1461.15 17.7584L1371.15 -34.2058C1367.39 -36.3751 1366.09 -41.2107 1368.31 -45.0529L1402.73 -104.672C1404.93 -108.471 1409.79 -109.809 1413.54 -107.64Z" fill="#FF0C37"/>
<path d="M2078.85 -62.6722L1962.12 -130.071C1954.64 -134.385 1945.15 -131.807 1940.84 -124.338L1838.27 53.3102C1833.96 60.7788 1836.54 70.2704 1843.97 74.5592L1960.71 141.958C1968.18 146.272 1977.67 143.694 1981.96 136.269L2084.53 -41.38C2088.84 -48.8486 2086.28 -58.3834 2078.85 -62.6722Z" fill="#FF3C6A"/>
<path d="M1778.14 -34.8272L1661.4 -102.226C1653.93 -106.54 1644.39 -103.987 1640.1 -96.5614L1537.54 81.0871C1533.23 88.5556 1535.81 98.0473 1543.28 102.361L1660.02 169.76C1667.49 174.074 1677.03 171.521 1681.31 164.095L1783.85 -13.5101C1788.17 -20.9787 1785.58 -30.4703 1778.11 -34.784L1778.14 -34.8272Z" fill="#FF0C37"/>
<path d="M2171.15 192.079L2054.41 124.68C2046.94 120.366 2037.41 122.919 2033.12 130.345L1930.55 307.993C1926.24 315.462 1928.82 324.953 1936.3 329.267L2053.03 396.666C2060.51 400.98 2070.04 398.427 2074.33 391.001L2176.87 213.396C2181.18 205.927 2178.6 196.436 2171.13 192.122L2171.15 192.079Z" fill="#FF0C37"/>
<path d="M2564.17 418.987L2447.43 351.588C2439.96 347.275 2430.42 349.828 2426.14 357.253L2323.57 534.902C2319.26 542.37 2321.84 551.862 2329.31 556.176L2446.05 623.574C2453.52 627.888 2463.06 625.335 2467.34 617.91L2569.89 440.304C2574.2 432.836 2571.62 423.344 2564.14 419.03L2564.17 418.987Z" fill="#FF0C37"/>
<path d="M1453.94 107.359L1337.2 39.9601C1329.73 35.6464 1320.23 38.2243 1315.92 45.6929L1213.36 223.341C1209.04 230.81 1211.63 240.302 1219.05 244.59L1335.79 311.989C1343.26 316.303 1352.76 313.725 1357.04 306.3L1459.61 128.651C1463.92 121.183 1461.36 111.648 1453.94 107.359Z" fill="#FF3C6A"/>
<path d="M1155.84 135.452L1039.1 68.0529C1031.63 63.7392 1022.09 66.2922 1017.8 73.7176L915.238 251.366C910.926 258.835 913.508 268.326 920.98 272.64L1037.72 340.039C1045.19 344.353 1054.73 341.8 1059.01 334.374L1161.58 156.726C1165.89 149.257 1163.31 139.766 1155.84 135.452Z" fill="#FF0C37"/>
<path d="M1849 335.45L1732.26 268.051C1724.79 263.737 1715.3 266.315 1710.99 273.784L1608.42 451.433C1604.11 458.901 1606.69 468.393 1614.12 472.682L1730.86 540.081C1738.33 544.394 1747.82 541.816 1752.11 534.391L1854.67 356.742C1858.99 349.274 1856.43 339.739 1849 335.45Z" fill="#FF3C6A"/>
<path d="M1548.83 362.344L1432.09 294.945C1424.62 290.632 1415.09 293.185 1410.8 300.61L1308.23 478.259C1303.92 485.727 1306.5 495.219 1313.98 499.533L1430.71 566.932C1438.19 571.245 1447.72 568.692 1452.01 561.267L1554.57 383.618C1558.89 376.15 1556.3 366.658 1548.83 362.344Z" fill="#FF0C37"/>
<path d="M2244.13 563.578L2127.39 496.179C2119.92 491.865 2110.43 494.443 2106.11 501.912L2003.55 679.56C1999.24 687.029 2001.82 696.521 2009.25 700.81L2125.99 768.208C2133.46 772.522 2142.95 769.944 2147.24 762.519L2249.8 584.87C2254.11 577.402 2251.56 567.867 2244.13 563.578Z" fill="#FF3C6A"/>
<path d="M1941.85 589.253L1825.11 521.854C1817.64 517.54 1808.1 520.093 1803.82 527.519L1701.25 705.167C1696.94 712.636 1699.52 722.127 1706.99 726.441L1823.73 793.84C1831.2 798.154 1840.74 795.601 1845.02 788.175L1947.59 610.527C1951.9 603.058 1949.32 593.567 1941.85 589.253Z" fill="#FF0C37"/>
<path d="M1223.26 506.907L1106.52 439.508C1099.05 435.194 1089.55 437.772 1085.24 445.241L982.676 622.889C978.364 630.358 980.946 639.849 988.374 644.138L1105.11 711.537C1112.58 715.851 1122.08 713.273 1126.36 705.847L1228.93 528.199C1233.24 520.73 1230.68 511.195 1223.26 506.907Z" fill="#FF3C6A"/>
<path d="M925.159 534.999L808.42 467.6C800.949 463.286 791.413 465.839 787.126 473.265L684.56 650.913C680.248 658.382 682.83 667.873 690.302 672.187L807.04 739.586C814.512 743.9 824.048 741.347 828.335 733.921L930.9 556.273C935.212 548.804 932.63 539.313 925.159 534.999Z" fill="#FF0C37"/>
<path d="M1184.04 289.879L1274.04 341.843C1277.8 344.012 1279.1 348.848 1276.88 352.69L1242.46 412.309C1240.26 416.108 1235.4 417.446 1231.65 415.277L1141.64 363.312C1137.88 361.143 1136.59 356.308 1138.81 352.465L1173.23 292.846C1175.42 289.047 1180.28 287.709 1184.04 289.879Z" fill="#FF0C37"/>
<path d="M1577.2 516.872L1667.2 568.836C1670.96 571.005 1672.26 575.841 1670.04 579.683L1635.62 639.302C1633.42 643.101 1628.56 644.439 1624.81 642.27L1534.8 590.305C1531.04 588.136 1529.75 583.301 1531.97 579.458L1566.39 519.839C1568.58 516.04 1573.44 514.702 1577.2 516.872Z" fill="#FF0C37"/>
<path d="M2058.72 456.535L1913.48 372.679C1907.39 369.163 1899.63 371.242 1896.11 377.329L1841.05 472.694C1837.54 478.781 1839.62 486.545 1845.71 490.061L1990.95 573.917C1997.04 577.433 2004.81 575.354 2008.32 569.267L2063.38 473.902C2066.89 467.815 2064.81 460.051 2058.72 456.535Z" fill="#DA0533"/>
<path d="M2438.91 676.037L2293.67 592.181C2287.58 588.665 2279.81 590.744 2276.3 596.831L2221.24 692.196C2217.73 698.283 2219.81 706.047 2225.9 709.563L2371.14 793.418C2377.23 796.934 2385 794.855 2388.51 788.768L2443.57 693.404C2447.08 687.316 2445 679.552 2438.91 676.037Z" fill="#DA0533"/>
<path d="M1661.52 227.208L1516.27 143.352C1510.18 139.836 1502.42 141.915 1498.9 148.002L1443.85 243.367C1440.33 249.454 1442.41 257.218 1448.5 260.734L1593.75 344.59C1599.83 348.105 1607.6 346.027 1611.11 339.939L1666.17 244.575C1669.69 238.488 1667.61 230.724 1661.52 227.208Z" fill="#DA0533"/>
<path d="M1268.53 0.314461L1123.28 -83.5415C1117.19 -87.0573 1109.43 -84.9784 1105.91 -78.8913L1050.85 16.4733C1047.34 22.5605 1049.42 30.3245 1055.51 33.8404L1200.75 117.696C1206.84 121.212 1214.61 119.133 1218.12 113.046L1273.18 17.6814C1276.7 11.5943 1274.61 3.83028 1268.53 0.314461Z" fill="#DA0533"/>
<path d="M1618.32 734.998L1501.58 667.599C1494.11 663.286 1484.62 665.864 1480.31 673.332L1377.74 850.981C1373.43 858.449 1376.01 867.941 1383.44 872.23L1500.18 939.629C1507.65 943.942 1517.14 941.364 1521.43 933.939L1623.99 756.29C1628.31 748.822 1625.75 739.287 1618.32 734.998Z" fill="#FF3C6A"/>
<path d="M1318.15 761.893L1201.41 694.494C1193.94 690.18 1184.41 692.733 1180.12 700.159L1077.55 877.807C1073.24 885.276 1075.82 894.768 1083.29 899.081L1200.03 966.48C1207.5 970.794 1217.04 968.241 1221.33 960.816L1323.89 783.167C1328.2 775.698 1325.62 766.207 1318.15 761.893Z" fill="#FF0C37"/>
<path d="M1806.71 119.354L1896.72 171.318C1900.47 173.487 1901.77 178.323 1899.55 182.165L1865.13 241.784C1862.94 245.583 1858.08 246.921 1854.32 244.752L1764.31 192.787C1760.56 190.618 1759.26 185.783 1761.48 181.94L1795.9 122.321C1798.09 118.522 1802.95 117.184 1806.71 119.354Z" fill="#FF0C37"/>
<path d="M2208.36 351.249L2298.37 403.214C2302.13 405.383 2303.42 410.218 2301.21 414.061L2266.78 473.68C2264.59 477.479 2259.73 478.817 2255.97 476.647L2165.97 424.683C2162.21 422.514 2160.91 417.678 2163.13 413.836L2197.55 354.217C2199.75 350.418 2204.61 349.08 2208.36 351.249Z" fill="#FF0C37"/>
<path d="M953.355 689.427L1043.36 741.391C1047.12 743.56 1048.41 748.396 1046.2 752.238L1011.77 811.857C1009.58 815.656 1004.72 816.994 1000.96 814.825L910.958 762.861C907.201 760.691 905.904 755.856 908.122 752.014L942.543 692.394C944.737 688.595 949.598 687.257 953.355 689.427Z" fill="#FF0C37"/>
<path d="M1430.84 626.755L1285.6 542.899C1279.51 539.384 1271.74 541.462 1268.23 547.55L1213.17 642.914C1209.65 649.001 1211.74 656.765 1217.82 660.281L1363.07 744.137C1369.16 747.653 1376.92 745.574 1380.44 739.487L1435.5 644.122C1439.01 638.035 1436.93 630.271 1430.84 626.755Z" fill="#DA0533"/>
<path d="M1037.85 399.863L892.605 316.007C886.515 312.491 878.75 314.57 875.236 320.657L820.177 416.022C816.663 422.109 818.745 429.873 824.834 433.389L970.077 517.245C976.167 520.761 983.932 518.682 987.446 512.595L1042.5 417.23C1046.02 411.143 1043.94 403.379 1037.85 399.863Z" fill="#DA0533"/>
<path d="M2304.69 50.447L2159.45 -33.4089C2153.36 -36.9248 2145.6 -34.8459 2142.08 -28.7588L2087.02 66.6059C2083.51 72.693 2085.59 80.4571 2091.68 83.9729L2236.92 167.829C2243.01 171.345 2250.78 169.266 2254.29 163.179L2309.35 67.814C2312.87 61.7269 2310.78 53.9628 2304.69 50.447Z" fill="#DA0533"/>
<path d="M2684.88 269.949L2539.64 186.093C2533.55 182.577 2525.79 184.656 2522.27 190.743L2467.21 286.108C2463.7 292.195 2465.78 299.959 2471.87 303.475L2617.11 387.331C2623.2 390.846 2630.97 388.767 2634.48 382.68L2689.54 287.316C2693.05 281.229 2690.97 273.465 2684.88 269.949Z" fill="#DA0533"/>
<path d="M2473.99 165.457L2357.25 98.0578C2349.78 93.7441 2340.28 96.322 2335.97 103.791L2233.41 281.439C2229.09 288.908 2231.68 298.399 2239.1 302.688L2355.84 370.087C2363.31 374.401 2372.81 371.823 2377.09 364.397L2479.66 186.749C2483.97 179.28 2481.42 169.746 2473.99 165.457Z" fill="#DA0533"/>
<path d="M1057.27 -169.403L940.532 -236.802C933.06 -241.116 923.524 -238.563 919.237 -231.137L816.672 -53.4886C812.36 -46.02 814.942 -36.5284 822.413 -32.2146L939.152 35.1843C946.623 39.4981 956.159 36.945 960.446 29.5196L1063.01 -148.129C1067.32 -155.597 1064.74 -165.089 1057.27 -169.403Z" fill="#FF0C37"/>
<path d="M438.448 8.56562L321.709 -58.8333C314.238 -63.1471 304.702 -60.594 300.415 -53.1686L197.849 124.48C193.537 131.948 196.119 141.44 203.591 145.754L320.329 213.153C327.801 217.467 337.337 214.913 341.624 207.488L444.164 29.8827C448.476 22.4142 445.894 12.9225 438.423 8.60878L438.448 8.56562Z" fill="#FF0C37"/>
<path d="M831.463 235.474L714.725 168.075C707.253 163.761 697.718 166.314 693.431 173.74L590.865 351.388C586.553 358.857 589.135 368.349 596.607 372.662L713.345 440.061C720.817 444.375 730.352 441.822 734.64 434.397L837.18 256.791C841.492 249.323 838.91 239.831 831.439 235.517L831.463 235.474Z" fill="#FF0C37"/>
<path d="M116.295 151.937L-0.443188 84.538C-7.91479 80.2242 -17.4074 82.8022 -21.7194 90.2708L-124.285 267.919C-128.597 275.388 -126.015 284.88 -118.587 289.168L-1.84818 356.567C5.62342 360.881 15.1161 358.303 19.4032 350.878L121.969 173.229C126.281 165.761 123.724 156.226 116.295 151.937Z" fill="#FF3C6A"/>
<path d="M511.424 380.065L394.686 312.666C387.214 308.352 377.721 310.93 373.409 318.399L270.844 496.047C266.532 503.516 269.114 513.008 276.542 517.296L393.281 584.695C400.752 589.009 410.245 586.431 414.532 579.006L517.098 401.357C521.41 393.889 518.853 384.354 511.424 380.065Z" fill="#FF3C6A"/>
<path d="M209.143 405.74L92.4047 338.341C84.9331 334.027 75.3973 336.58 71.1102 344.005L-31.4552 521.654C-35.7672 529.123 -33.1854 538.614 -25.7138 542.928L91.0246 610.327C98.4962 614.641 108.032 612.088 112.319 604.662L214.885 427.014C219.197 419.545 216.615 410.053 209.143 405.74Z" fill="#FF0C37"/>
<path d="M595.1 631.106L478.362 563.707C470.89 559.393 461.354 561.946 457.067 569.371L354.502 747.02C350.19 754.489 352.772 763.98 360.243 768.294L476.982 835.693C484.453 840.007 493.989 837.454 498.276 830.028L600.842 652.38C605.154 644.911 602.572 635.419 595.1 631.106Z" fill="#FF0C37"/>
<path d="M246.15 565.254L336.155 617.218C339.912 619.388 341.209 624.223 338.991 628.065L304.569 687.684C302.376 691.483 297.515 692.821 293.758 690.652L203.753 638.688C199.996 636.518 198.699 631.683 200.917 627.841L235.338 568.222C237.532 564.423 242.393 563.085 246.15 565.254Z" fill="#FF0C37"/>
<path d="M326.018 273.022L180.775 189.166C174.685 185.65 166.92 187.729 163.406 193.816L108.347 289.181C104.833 295.268 106.915 303.032 113.004 306.548L258.247 390.404C264.337 393.92 272.102 391.841 275.616 385.754L330.675 290.389C334.189 284.302 332.107 276.538 326.018 273.022Z" fill="#DA0533"/>
<path d="M706.207 492.523L560.964 408.667C554.875 405.152 547.11 407.231 543.595 413.318L488.537 508.682C485.022 514.769 487.104 522.534 493.194 526.049L638.437 609.905C644.526 613.421 652.291 611.342 655.805 605.255L710.864 509.89C714.379 503.803 712.297 496.039 706.207 492.523Z" fill="#DA0533"/>
<path d="M74.0054 -64.1597L164.01 -12.1954C167.768 -10.0261 169.064 -5.19053 166.846 -1.34831L132.425 58.2708C130.231 62.0698 125.371 63.4078 121.613 61.2384L31.6084 9.27416C27.851 7.10483 26.5543 2.26932 28.7726 -1.5729L63.1937 -61.192C65.3871 -64.991 70.248 -66.329 74.0054 -64.1597Z" fill="#FF0C37"/>
<path d="M475.66 167.736L565.664 219.7C569.422 221.87 570.719 226.705 568.5 230.547L534.079 290.167C531.886 293.966 527.025 295.304 523.267 293.134L433.263 241.17C429.505 239.001 428.209 234.165 430.427 230.323L464.848 170.704C467.041 166.905 471.902 165.567 475.66 167.736Z" fill="#FF0C37"/>
<path d="M95.3379 672.57L-49.9049 588.714C-55.9945 585.198 -63.7594 587.277 -67.2738 593.364L-122.333 688.728C-125.847 694.816 -123.765 702.58 -117.675 706.095L27.5674 789.951C33.657 793.467 41.4219 791.388 44.9363 785.301L99.9952 689.937C103.51 683.849 101.427 676.085 95.3379 672.57Z" fill="#DA0533"/>
<path d="M952.178 86.4356L806.935 2.57959C800.845 -0.936225 793.08 1.14266 789.566 7.22977L734.507 102.594C730.993 108.682 733.075 116.446 739.165 119.961L884.407 203.817C890.497 207.333 898.262 205.254 901.776 199.167L956.835 103.803C960.349 97.7154 958.267 89.9514 952.178 86.4356Z" fill="#DA0533"/>
<path d="M741.282 -18.0565L624.543 -85.4554C617.072 -89.7691 607.579 -87.1912 603.267 -79.7226L500.701 97.9259C496.389 105.395 498.971 114.886 506.4 119.175L623.138 186.574C630.61 190.888 640.103 188.31 644.39 180.884L746.955 3.23579C751.267 -4.23278 748.71 -13.7677 741.282 -18.0565Z" fill="#DA0533"/>
<rect x="0.00195312" y="-151.998" width="3193" height="858" fill="url(#paint0_linear_2682_8204)"/>
<path d="M2062.9 928.533L2245.98 592.048C2257.7 570.512 2248.09 542.859 2224.58 530.069L1665.45 225.847C1641.95 213.058 1613.58 220.209 1601.93 241.621L1418.85 578.105C1407.13 599.641 1416.74 627.295 1440.11 640.011L1999.24 944.232C2022.74 957.022 2051.25 949.944 2062.9 928.533Z" fill="#FF3C6A"/>
<path style="mix-blend-mode:lighten" d="M1672 981.469C1885.73 981.469 2059 788.322 2059 550.063C2059 311.804 1885.73 118.656 1672 118.656C1458.26 118.656 1285 311.804 1285 550.063C1285 788.322 1458.26 981.469 1672 981.469Z" fill="url(#paint1_radial_2682_8204)"/>
<path opacity="0.34" d="M1989.73 -31.0019L1272.86 1091.02L2502.25 966.799L2747.63 -95.7906L1989.73 -31.0019Z" fill="url(#paint2_linear_2682_8204)"/>
</g>
<defs>
<linearGradient id="paint0_linear_2682_8204" x1="1596.5" y1="-151.998" x2="1597.32" y2="567.902" gradientUnits="userSpaceOnUse">
<stop stop-color="#EB0033"/>
<stop offset="1" stop-color="#EC0134" stop-opacity="0.31"/>
</linearGradient>
<radialGradient id="paint1_radial_2682_8204" cx="0" cy="0" r="1" gradientUnits="userSpaceOnUse" gradientTransform="translate(1672 550.063) scale(940.014 1047.88)">
<stop stop-color="white"/>
<stop offset="0.47" stop-color="#EC0032" stop-opacity="0"/>
</radialGradient>
<linearGradient id="paint2_linear_2682_8204" x1="1680.37" y1="417.576" x2="2400.15" y2="975.324" gradientUnits="userSpaceOnUse">
<stop stop-color="white"/>
<stop offset="0.55" stop-color="#EC0032" stop-opacity="0"/>
</linearGradient>
<clipPath id="clip0_2682_8204">
<rect width="2960" height="691" fill="white"/>
</clipPath>
</defs>
</svg>
