<?xml version="1.0" encoding="utf-8"?><svg width="28" height="25" viewBox="0 0 28 25" fill="none" xmlns="http://www.w3.org/2000/svg">
<path d="M27.0385 4.92922C27.2667 5.21971 27.4119 5.54132 27.4742 5.89406C27.5572 6.24679 27.5572 6.59953 27.4742 6.95227L25.5134 14.7643C25.3889 15.2831 25.1088 15.7084 24.6731 16.0404C24.2581 16.3724 23.7808 16.5384 23.2414 16.5384H10.9786C10.4184 16.5384 9.9204 16.362 9.48466 16.0093C9.04893 15.6358 8.77919 15.1689 8.67545 14.6087L8.45758 13.426C8.41608 13.1563 8.46795 12.9073 8.6132 12.679C8.77919 12.4508 8.99706 12.3159 9.2668 12.2744C9.53654 12.2329 9.78553 12.2952 10.0138 12.4612C10.242 12.6064 10.3769 12.8139 10.4184 13.0836L10.6362 14.2352C10.6362 14.339 10.6674 14.422 10.7296 14.4842C10.8126 14.5257 10.8956 14.5465 10.9786 14.5465H23.2414C23.3244 14.5465 23.397 14.5257 23.4592 14.4842C23.5215 14.422 23.563 14.3493 23.5837 14.2663L25.5134 6.45429C25.5341 6.39204 25.5341 6.34017 25.5134 6.29867C25.4926 6.23642 25.4719 6.19492 25.4511 6.17417C25.4304 6.13267 25.3993 6.10155 25.3578 6.0808C25.3163 6.0393 25.254 6.01855 25.171 6.01855H9.1423L9.54691 8.16609C9.58841 8.43583 9.52616 8.68482 9.36017 8.91306C9.21492 9.12055 9.00743 9.25542 8.73769 9.31767C8.71694 9.31767 8.68582 9.31767 8.64432 9.31767C8.60282 9.31767 8.5717 9.31767 8.55095 9.31767C8.32271 9.31767 8.11522 9.24505 7.92848 9.0998C7.74173 8.93381 7.62761 8.73669 7.58611 8.50845L6.6524 3.49753C6.59015 3.08255 6.39304 2.75056 6.06105 2.50157C5.74981 2.23183 5.3867 2.09696 4.97172 2.09696H1.98384C1.7141 2.09696 1.47549 2.00359 1.26799 1.81685C1.08125 1.60936 0.98788 1.37074 0.98788 1.101C0.98788 0.831262 1.08125 0.603022 1.26799 0.416279C1.47549 0.208787 1.7141 0.105042 1.98384 0.105042H4.97172C5.86393 0.105042 6.6524 0.39553 7.33712 0.976507C8.02185 1.53673 8.4472 2.25258 8.6132 3.12405L8.76882 4.02663H25.171C25.5445 4.02663 25.8869 4.10963 26.1981 4.27562C26.5301 4.44162 26.8102 4.65948 27.0385 4.92922ZM13.1261 17.9078C13.9769 17.9078 14.7031 18.2191 15.3048 18.8415C15.9273 19.4433 16.2385 20.1695 16.2385 21.0202C16.2385 21.8917 15.9273 22.6386 15.3048 23.2611C14.7031 23.8628 13.9769 24.1637 13.1261 24.1637C12.2547 24.1637 11.5077 23.8628 10.8852 23.2611C10.2835 22.6386 9.98264 21.8917 9.98264 21.0202C9.98264 20.1695 10.2835 19.4433 10.8852 18.8415C11.5077 18.2191 12.2547 17.9078 13.1261 17.9078ZM13.1261 22.1718C13.4374 22.1718 13.6967 22.0577 13.9042 21.8294C14.1325 21.6012 14.2466 21.3314 14.2466 21.0202C14.2466 20.709 14.1325 20.4392 13.9042 20.211C13.6967 19.9827 13.4374 19.8686 13.1261 19.8686C12.7942 19.8686 12.514 19.9827 12.2858 20.211C12.0783 20.4392 11.9746 20.709 11.9746 21.0202C11.9746 21.3314 12.0887 21.6012 12.3169 21.8294C12.5452 22.0577 12.8149 22.1718 13.1261 22.1718ZM20.8448 17.9078C21.7163 17.9078 22.4529 18.2191 23.0546 18.8415C23.6771 19.4433 23.9883 20.1695 23.9883 21.0202C23.9883 21.8917 23.6771 22.6386 23.0546 23.2611C22.4529 23.8628 21.7163 24.1637 20.8448 24.1637C19.9941 24.1637 19.2575 23.8628 18.635 23.2611C18.0333 22.6386 17.7325 21.8917 17.7325 21.0202C17.7325 20.1695 18.0333 19.4433 18.635 18.8415C19.2575 18.2191 19.9941 17.9078 20.8448 17.9078ZM20.8448 22.1718C21.1768 22.1718 21.4466 22.0577 21.654 21.8294C21.8823 21.6012 21.9964 21.3314 21.9964 21.0202C21.9964 20.709 21.8823 20.4392 21.654 20.211C21.4258 19.9827 21.1561 19.8686 20.8448 19.8686C20.5336 19.8686 20.2639 19.9827 20.0356 20.211C19.8281 20.4392 19.7244 20.709 19.7244 21.0202C19.7244 21.3314 19.8281 21.6012 20.0356 21.8294C20.2639 22.0577 20.5336 22.1718 20.8448 22.1718Z" fill="#E01524"/>
</svg>
