<?xml version="1.0" encoding="utf-8"?><svg width="32" height="32" viewBox="0 0 32 32" fill="none" xmlns="http://www.w3.org/2000/svg">
<path d="M26.3438 8.46875V6.34375C26.3438 5.69792 26.1146 5.14583 25.6562 4.6875C25.1979 4.22917 24.6458 4 24 4H6.65625C6.03125 4 5.48958 4.22917 5.03125 4.6875C4.57292 5.14583 4.34375 5.69792 4.34375 6.34375V8.40625H3.65625C3.38542 8.40625 3.14583 8.51042 2.9375 8.71875C2.75 8.90625 2.65625 9.13542 2.65625 9.40625V26.7188C2.65625 27.0104 2.75 27.25 2.9375 27.4375C3.14583 27.625 3.38542 27.7188 3.65625 27.7188H15.9688C16.2396 27.7188 16.4688 27.625 16.6562 27.4375C16.8646 27.25 16.9688 27.0104 16.9688 26.7188C16.9688 26.4479 16.8646 26.2188 16.6562 26.0312C16.4688 25.8229 16.2396 25.7188 15.9688 25.7188H4.65625V10.4062H25.6562C26.1146 10.4062 26.5104 10.5729 26.8438 10.9062C27.1771 11.2188 27.3438 11.6042 27.3438 12.0625V15.0625H22.2812C21.4479 15.0625 20.7396 15.3542 20.1562 15.9375C19.5729 16.5208 19.2812 17.2292 19.2812 18.0625C19.2812 18.8958 19.5729 19.6042 20.1562 20.1875C20.7396 20.7708 21.4479 21.0625 22.2812 21.0625H27.3438V24.0625C27.3438 24.5208 27.1771 24.9167 26.8438 25.25C26.5104 25.5625 26.1146 25.7188 25.6562 25.7188H21.3438C21.0729 25.7188 20.8333 25.8229 20.625 26.0312C20.4375 26.2188 20.3438 26.4479 20.3438 26.7188C20.3438 27.0104 20.4375 27.25 20.625 27.4375C20.8125 27.625 21.0521 27.7188 21.3438 27.7188H25.6562C26.6771 27.7188 27.5417 27.3646 28.25 26.6562C28.9792 25.9479 29.3438 25.0833 29.3438 24.0625V12.0625C29.3438 11.1667 29.0521 10.3854 28.4688 9.71875C27.9062 9.05208 27.1979 8.63542 26.3438 8.46875ZM6.34375 6.34375C6.34375 6.23958 6.375 6.15625 6.4375 6.09375C6.5 6.03125 6.57292 6 6.65625 6H24C24.0833 6 24.1562 6.03125 24.2188 6.09375C24.3021 6.15625 24.3438 6.23958 24.3438 6.34375V8.40625H6.34375V6.34375ZM22.2812 19.0625C21.9896 19.0625 21.75 18.9688 21.5625 18.7812C21.375 18.5729 21.2812 18.3333 21.2812 18.0625C21.2812 17.7917 21.375 17.5625 21.5625 17.375C21.75 17.1667 21.9896 17.0625 22.2812 17.0625H27.3438V19.0625H22.2812Z" fill="#E01524"/>
</svg>
