<?xml version="1.0" encoding="utf-8"?><svg width="1327" height="307" viewBox="0 0 1327 307" fill="none" xmlns="http://www.w3.org/2000/svg">
<path d="M1284.42 144.241L1295.75 136.214L1296.51 150.197L1304.43 161.748L1290.56 162.286L1278.9 170.432L1278.48 156.335L1270.22 144.893L1284.42 144.241Z" fill="white"/>
<path d="M321.301 10.7364L322.881 0L331.199 7.11881L342 8.88396L334.816 17.0114L333.119 28L324.927 20.629L314 19.1257L321.301 10.7364Z" fill="white"/>
<path d="M12.5152 197.405L15.2244 179L29.4848 191.204L48 194.23L35.6842 208.162L32.7756 227L18.7313 214.364L0 211.787L12.5152 197.405Z" fill="white"/>
<path d="M1316.65 298.368L1317.44 293L1321.6 296.559L1327 297.442L1323.41 301.506L1322.56 307L1318.46 303.315L1313 302.563L1316.65 298.368Z" fill="white"/>
<path d="M157.65 158.368L158.44 153L162.6 156.559L168 157.442L164.408 161.506L163.56 167L159.463 163.315L154 162.563L157.65 158.368Z" fill="white"/>
</svg>
