<?xml version="1.0" encoding="utf-8"?><svg width="29" height="28" viewBox="0 0 29 28" fill="none" xmlns="http://www.w3.org/2000/svg">
<path fill-rule="evenodd" clip-rule="evenodd" d="M7.3545 4.91094C5.18307 5.0581 3.50735 6.78639 3.36613 8.95821C3.26068 10.5799 3.1665 12.4594 3.1665 14C3.1665 15.5405 3.26068 17.42 3.36613 19.0417C3.50735 21.2135 5.18307 22.9418 7.3545 23.089C9.24989 23.2174 11.8002 23.3333 14.8332 23.3333C17.8662 23.3333 20.4165 23.2174 22.3118 23.089C24.4833 22.9418 26.159 21.2135 26.3002 19.0417C26.4057 17.42 26.4998 15.5405 26.4998 14C26.4998 12.4594 26.4057 10.5799 26.3002 8.95821C26.159 6.78639 24.4833 5.0581 22.3118 4.91094C20.4165 4.78249 17.8662 4.66663 14.8332 4.66663C11.8002 4.66663 9.24989 4.78249 7.3545 4.91094ZM14.3106 10.6957C13.535 10.1822 12.4998 10.7383 12.4998 11.6685V16.3317C12.4998 17.2619 13.535 17.818 14.3105 17.3045L17.8028 14.9925C18.5136 14.5219 18.5136 13.4786 17.8029 13.008L14.3106 10.6957Z" fill="#141414"/>
</svg>
