<?xml version="1.0" encoding="utf-8"?><svg width="28" height="28" viewBox="0 0 28 28" fill="none" xmlns="http://www.w3.org/2000/svg">
<path d="M2.78125 20.1875C3.05208 20.1042 3.30208 20.1354 3.53125 20.2812C3.78125 20.4062 3.94792 20.6042 4.03125 20.875L5.09375 24.7188C5.11458 24.8021 5.13542 24.875 5.15625 24.9375C5.19792 24.9792 5.23958 25.0104 5.28125 25.0312C5.30208 25.0729 5.32292 25.0938 5.34375 25.0938C5.38542 25.0938 5.41667 25.0938 5.4375 25.0938H9.96875C10.2396 25.0938 10.4688 25.1979 10.6562 25.4062C10.8646 25.5938 10.9688 25.8229 10.9688 26.0938C10.9688 26.3854 10.8646 26.625 10.6562 26.8125C10.4688 27 10.2396 27.0938 9.96875 27.0938H5.4375C4.85417 27.0938 4.36458 26.9167 3.96875 26.5625C3.57292 26.1875 3.30208 25.75 3.15625 25.25L2.09375 21.4062C2.01042 21.1562 2.03125 20.9062 2.15625 20.6562C2.30208 20.4062 2.51042 20.25 2.78125 20.1875ZM18.5312 21.1562C18.8021 21.2396 19 21.4062 19.125 21.6562C19.25 21.8854 19.2708 22.1354 19.1875 22.4062L18.125 25.6562C17.9583 26.1354 17.6667 26.5312 17.25 26.8438C16.8333 27.1354 16.3646 27.2812 15.8438 27.2812H14.0938C13.8229 27.2812 13.5833 27.1875 13.375 27C13.1875 26.8125 13.0938 26.5729 13.0938 26.2812C13.0938 26.0104 13.1875 25.7812 13.375 25.5938C13.5833 25.3854 13.8229 25.2812 14.0938 25.2812H15.8438C15.9271 25.2812 16 25.2604 16.0625 25.2188C16.125 25.1771 16.1771 25.1146 16.2188 25.0312L17.2812 21.7812C17.3646 21.5104 17.5312 21.3125 17.7812 21.1875C18.0312 21.0625 18.2812 21.0521 18.5312 21.1562ZM0.65625 21.1562C0.65625 20.8646 0.75 20.625 0.9375 20.4375C1.14583 20.25 1.38542 20.1562 1.65625 20.1562H19.625C19.8958 20.1562 20.125 20.25 20.3125 20.4375C20.5208 20.625 20.625 20.8646 20.625 21.1562C20.625 21.4271 20.5208 21.6667 20.3125 21.875C20.125 22.0625 19.8958 22.1562 19.625 22.1562H1.65625C1.38542 22.1562 1.14583 22.0625 0.9375 21.875C0.75 21.6667 0.65625 21.4271 0.65625 21.1562ZM14.1562 7.78125C14.2396 7.67708 14.3438 7.60417 14.4688 7.5625C14.6146 7.5 14.75 7.46875 14.875 7.46875H26.2188C26.3438 7.46875 26.4688 7.5 26.5938 7.5625C26.7396 7.60417 26.8542 7.67708 26.9375 7.78125C27.0417 7.88542 27.1146 8.01042 27.1562 8.15625C27.1979 8.28125 27.2188 8.40625 27.2188 8.53125L26.0625 25.125C26 25.7292 25.7396 26.2396 25.2812 26.6562C24.8438 27.0729 24.3229 27.2812 23.7188 27.2812H19.5938C19.3229 27.2812 19.0833 27.1875 18.875 27C18.6875 26.8125 18.5938 26.5729 18.5938 26.2812C18.5938 26.0104 18.6875 25.7812 18.875 25.5938C19.0833 25.3854 19.3229 25.2812 19.5938 25.2812H23.7188C23.8021 25.2812 23.875 25.2604 23.9375 25.2188C24 25.1562 24.0417 25.0729 24.0625 24.9688L25.1562 9.46875H15.9375L16.3438 15.8438C16.3646 16.1354 16.2812 16.3854 16.0938 16.5938C15.9271 16.8021 15.7083 16.9062 15.4375 16.9062C15.1458 16.9271 14.8958 16.8542 14.6875 16.6875C14.4792 16.5 14.375 16.2708 14.375 16L13.875 8.53125C13.875 8.38542 13.8958 8.25 13.9375 8.125C13.9792 8 14.0521 7.88542 14.1562 7.78125ZM20.9688 1.53125C20.9896 1.28125 21.0938 1.07292 21.2812 0.90625C21.4688 0.739583 21.6875 0.65625 21.9375 0.65625H24.625C24.8958 0.65625 25.125 0.760417 25.3125 0.96875C25.5208 1.15625 25.625 1.38542 25.625 1.65625C25.625 1.94792 25.5208 2.1875 25.3125 2.375C25.125 2.5625 24.8958 2.65625 24.625 2.65625H22.8438L22.0938 8.59375C22.0729 8.86458 21.9479 9.09375 21.7188 9.28125C21.5104 9.44792 21.2604 9.51042 20.9688 9.46875C20.6979 9.42708 20.4792 9.30208 20.3125 9.09375C20.1458 8.88542 20.0833 8.63542 20.125 8.34375L20.9688 1.53125ZM5.84375 16.7188C5.84375 15.4062 6.3125 14.2812 7.25 13.3438C8.1875 12.4062 9.3125 11.9375 10.625 11.9375C11.9583 11.9375 13.0938 12.4062 14.0312 13.3438C14.9688 14.2812 15.4375 15.4062 15.4375 16.7188C15.4375 16.9896 15.3333 17.2292 15.125 17.4375C14.9375 17.625 14.7083 17.7188 14.4375 17.7188C14.1458 17.7188 13.9062 17.625 13.7188 17.4375C13.5312 17.2292 13.4375 16.9896 13.4375 16.7188C13.4375 15.9479 13.1562 15.2917 12.5938 14.75C12.0521 14.2083 11.3958 13.9375 10.625 13.9375C9.85417 13.9375 9.19792 14.2083 8.65625 14.75C8.11458 15.2917 7.84375 15.9479 7.84375 16.7188C7.84375 16.9896 7.75 17.2292 7.5625 17.4375C7.375 17.625 7.13542 17.7188 6.84375 17.7188C6.57292 17.7188 6.33333 17.625 6.125 17.4375C5.9375 17.2292 5.84375 16.9896 5.84375 16.7188ZM2.0625 20.7188C2.0625 19.4062 2.53125 18.2812 3.46875 17.3438C4.40625 16.4062 5.53125 15.9375 6.84375 15.9375C8.17708 15.9375 9.30208 16.4062 10.2188 17.3438C11.1562 18.2812 11.625 19.4062 11.625 20.7188C11.625 20.9896 11.5312 21.2292 11.3438 21.4375C11.1562 21.625 10.9167 21.7188 10.625 21.7188C10.3542 21.7188 10.1146 21.625 9.90625 21.4375C9.71875 21.2292 9.625 20.9896 9.625 20.7188C9.625 19.9479 9.35417 19.2917 8.8125 18.75C8.27083 18.2083 7.61458 17.9375 6.84375 17.9375C6.07292 17.9375 5.41667 18.2083 4.875 18.75C4.33333 19.2917 4.0625 19.9479 4.0625 20.7188C4.0625 20.9896 3.95833 21.2292 3.75 21.4375C3.5625 21.625 3.33333 21.7188 3.0625 21.7188C2.79167 21.7188 2.55208 21.625 2.34375 21.4375C2.15625 21.2292 2.0625 20.9896 2.0625 20.7188ZM9.65625 20.7188C9.65625 19.4062 10.125 18.2812 11.0625 17.3438C12 16.4062 13.125 15.9375 14.4375 15.9375C15.7708 15.9375 16.8958 16.4062 17.8125 17.3438C18.75 18.2812 19.2188 19.4062 19.2188 20.7188C19.2188 20.9896 19.125 21.2292 18.9375 21.4375C18.75 21.625 18.5104 21.7188 18.2188 21.7188C17.9479 21.7188 17.7083 21.625 17.5 21.4375C17.3125 21.2292 17.2188 20.9896 17.2188 20.7188C17.2188 19.9479 16.9479 19.2917 16.4062 18.75C15.8646 18.2083 15.2083 17.9375 14.4375 17.9375C13.6667 17.9375 13.0104 18.2083 12.4688 18.75C11.9271 19.2917 11.6562 19.9479 11.6562 20.7188C11.6562 20.9896 11.5521 21.2292 11.3438 21.4375C11.1562 21.625 10.9271 21.7188 10.6562 21.7188C10.3854 21.7188 10.1458 21.625 9.9375 21.4375C9.75 21.2292 9.65625 20.9896 9.65625 20.7188Z" fill="#E01524"/>
</svg>
