<?xml version="1.0" encoding="utf-8"?><svg width="29" height="28" viewBox="0 0 29 28" fill="none" xmlns="http://www.w3.org/2000/svg">
<path fill-rule="evenodd" clip-rule="evenodd" d="M4 9.1C4 7.13982 4 6.15972 4.38148 5.41103C4.71703 4.75247 5.25247 4.21703 5.91103 3.88148C6.65972 3.5 7.63982 3.5 9.6 3.5H19.4C21.3602 3.5 22.3403 3.5 23.089 3.88148C23.7475 4.21703 24.283 4.75247 24.6185 5.41103C25 6.15972 25 7.13982 25 9.1V18.9C25 20.8602 25 21.8403 24.6185 22.589C24.283 23.2475 23.7475 23.783 23.089 24.1185C22.3403 24.5 21.3602 24.5 19.4 24.5H9.6C7.63982 24.5 6.65972 24.5 5.91103 24.1185C5.25247 23.783 4.71703 23.2475 4.38148 22.589C4 21.8403 4 20.8602 4 18.9V9.1ZM8.66667 14C8.66667 13.3557 9.189 12.8333 9.83333 12.8333C10.4777 12.8333 11 13.3557 11 14V18.6667C11 19.311 10.4777 19.8333 9.83333 19.8333C9.189 19.8333 8.66667 19.311 8.66667 18.6667V14ZM9.83333 10.5C10.4777 10.5 11 9.97767 11 9.33333C11 8.689 10.4777 8.16667 9.83333 8.16667C9.189 8.16667 8.66667 8.689 8.66667 9.33333C8.66667 9.97767 9.189 10.5 9.83333 10.5ZM16.8333 15.1667C16.189 15.1667 15.6667 15.689 15.6667 16.3333V18.6667C15.6667 19.311 15.1443 19.8333 14.5 19.8333C13.8557 19.8333 13.3333 19.311 13.3333 18.6667V16.3333V14C13.3333 13.3557 13.8557 12.8333 14.5 12.8333C14.8219 12.8333 15.1133 12.9637 15.3243 13.1744C15.7813 12.9558 16.293 12.8333 16.8333 12.8333C18.7663 12.8333 20.3333 14.4003 20.3333 16.3333V18.6667C20.3333 19.311 19.811 19.8333 19.1667 19.8333C18.5223 19.8333 18 19.311 18 18.6667V16.3333C18 15.689 17.4777 15.1667 16.8333 15.1667Z" fill="#141414"/>
</svg>
