<?xml version="1.0" encoding="utf-8"?><svg width="29" height="28" viewBox="0 0 29 28" fill="none" xmlns="http://www.w3.org/2000/svg">
<path fill-rule="evenodd" clip-rule="evenodd" d="M3.66675 8.16667C3.66675 5.58934 5.75609 3.5 8.33341 3.5H20.0001C22.5774 3.5 24.6667 5.58934 24.6667 8.16667V19.8333C24.6667 22.4107 22.5774 24.5 20.0001 24.5H8.33341C5.75609 24.5 3.66675 22.4107 3.66675 19.8333V8.16667ZM14.1667 11.6667C12.8781 11.6667 11.8334 12.7113 11.8334 14C11.8334 15.2887 12.8781 16.3333 14.1667 16.3333C15.4554 16.3333 16.5001 15.2887 16.5001 14C16.5001 12.7113 15.4554 11.6667 14.1667 11.6667ZM9.50008 14C9.50008 11.4227 11.5894 9.33333 14.1667 9.33333C16.7441 9.33333 18.8334 11.4227 18.8334 14C18.8334 16.5773 16.7441 18.6667 14.1667 18.6667C11.5894 18.6667 9.50008 16.5773 9.50008 14ZM20.5834 8.75C21.2277 8.75 21.7501 8.22767 21.7501 7.58333C21.7501 6.939 21.2277 6.41667 20.5834 6.41667C19.9391 6.41667 19.4167 6.939 19.4167 7.58333C19.4167 8.22767 19.9391 8.75 20.5834 8.75Z" fill="#141414"/>
</svg>
